<?xml version="1.0" encoding="UTF-8"?>
<svg width="691px" height="291px" viewBox="0 0 691 291" version="1.1" xmlns="http://www.w3.org/2000/svg" xmlns:xlink="http://www.w3.org/1999/xlink">
    <!-- Generator: Sketch 55.2 (78181) - https://sketchapp.com -->
    <title>Rectangle</title>
    <desc>Created with Sketch.</desc>
    <g id="Page-1" stroke="none" stroke-width="1" fill="none" fill-rule="evenodd">
        <path d="M219.981878,5.21015816 C226.535641,6.81619068 233.231689,8.53129421 240.070024,10.3554688 C350.765649,39.884317 511.047403,10.3554688 628.478322,10.3554688 C638.826264,10.3554688 648.60504,10.6323625 657.814651,11.1861501 L657.814651,11.1861497 C677.109765,12.3463936 691.810983,28.9287377 690.650739,48.2238521 C690.081957,57.6828147 685.702068,66.5069088 678.512088,72.6794018 C660.585495,88.069119 660.189796,123.148641 677.324991,177.917969 C677.324991,177.917969 677.324991,177.917969 677.324991,177.917969 C691.008145,221.653518 666.645865,268.200573 622.910316,281.883727 C604.367995,287.684899 584.377908,286.795459 566.424074,279.370426 C543.779316,270.005384 524.597789,258.493893 508.879498,244.835938 C419.175951,166.890625 300.829898,339.591343 252.301786,269.866734 C219.64064,222.939591 154.727639,228.237498 57.5627812,285.760455 C40.9291556,295.607795 19.4620917,290.106423 9.61475216,273.472798 C6.781438,268.686907 5.12944764,263.294708 4.79567805,257.74304 L0.614695669,188.199782 C-5.260715,90.3726784 69.2808605,6.30518008 167.107965,0.429769415 C184.872601,-0.637159156 202.696669,0.97433631 219.981878,5.21015816 Z" id="Rectangle" fill="#F9F9F9"></path>
    </g>
</svg>